<?xml version="1.0" standalone="no"?>
<!DOCTYPE svg PUBLIC "-//W3C//DTD SVG 20010904//EN"
 "http://www.w3.org/TR/2001/REC-SVG-20010904/DTD/svg10.dtd">
<svg version="1.0" xmlns="http://www.w3.org/2000/svg"
 width="220px" height="80px" viewBox="40 40 220 80"
 preserveAspectRatio="xMidYMid meet" color="#fff">

<g transform="translate(0.000000,176.000000) scale(0.100000,-0.100000)"
   fill="currentColor" stroke="none">
<path d="M712 1208 c-11 -29 -61 -158 -111 -287 -50 -128 -91 -235 -91 -238 0
-2 25 -3 56 -1 l56 3 23 55 23 55 120 3 119 3 22 -61 22 -60 58 0 59 0 -87
224 c-47 124 -89 227 -93 231 -3 3 -18 -25 -32 -63 l-27 -69 20 -46 20 -47
-79 0 -80 0 21 53 c74 184 109 277 109 286 0 7 -22 11 -54 11 l-55 0 -19 -52z"/>
<path d="M1140 970 l0 -290 55 0 55 0 0 101 0 100 32 -3 c29 -3 36 -11 83 -98
l50 -95 58 -3 c31 -2 57 1 57 5 0 4 -25 53 -54 107 l-54 99 31 21 c55 37 77
81 77 153 0 68 -13 104 -52 140 -45 42 -89 53 -218 53 l-120 0 0 -290z m255
155 c33 -32 33 -75 -1 -109 -23 -22 -35 -26 -85 -26 l-59 0 0 80 0 80 60 0
c51 0 65 -4 85 -25z"/>
<path d="M1590 970 l0 -290 175 0 175 0 0 55 0 55 -120 0 -120 0 0 65 0 65
120 0 120 0 0 55 0 55 -120 0 -120 0 0 60 0 60 120 0 120 0 0 55 0 55 -175 0
-175 0 0 -290z"/>
<path d="M2046 1248 c4 -7 45 -71 91 -142 l84 -128 -89 -137 c-49 -75 -92
-142 -96 -148 -5 -10 8 -13 53 -13 l61 0 67 100 c36 55 70 97 73 93 4 -4 35
-50 69 -100 l62 -93 60 0 c45 0 58 3 53 13 -4 6 -90 137 -190 290 l-183 277
-61 0 c-46 0 -59 -3 -54 -12z"/>
<path d="M2387 1228 c-60 -81 -60 -78 -25 -131 l31 -48 52 78 c28 43 60 90 69
106 l18 27 -60 0 c-57 0 -63 -2 -85 -32z"/>
</g>
</svg>
