<?xml version="1.0" encoding="iso-8859-1"?>
<!-- Uploaded to: SVG Repo, www.svgrepo.com, Generator: SVG Repo Mixer Tools -->
<svg height="800px" width="800px" version="1.1" id="Layer_1" xmlns="http://www.w3.org/2000/svg" xmlns:xlink="http://www.w3.org/1999/xlink" 
	 viewBox="0 0 512 512" xml:space="preserve">
<g>
	<path style="fill:#0370cf;" d="M256,0C114.616,0,0,114.616,0,256s114.616,256,256,256s256-114.616,256-256S397.384,0,256,0L256,0z"
		/>
	<path style="fill:#013767;" d="M106.435,255.908v0.077V255.908L106.435,255.908z M106.435,255.683v0.087V255.683L106.435,255.683z
		 M106.44,255.462v0.077V255.462L106.44,255.462z M106.44,255.242v0.067V255.242L106.44,255.242z M106.44,255.037v0.041V255.037
		L106.44,255.037z M106.44,254.822v0.015V254.822L106.44,254.822z M370.268,151.613C393.083,176.184,407.68,213.816,407.68,256
		c0,74.03-44.959,134.047-100.413,134.047l0,0H206.853c-27.5,0-52.413-14.756-70.548-38.656c-2.637-3.466-5.125-7.137-7.46-10.972
		c-14.013-23.04-22.426-52.449-22.426-84.434c0,24.192-4.797,46.92-13.21,66.504l11.597,15.473l0.589-0.783l172.57,173.824
		l0.763-0.056l0.184-0.246l0.164,0.22c118.979-10.639,214.472-102.641,230.487-219.991
		C508.344,289.654,379.776,161.039,370.268,151.613L370.268,151.613z M204.211,121.999L204.211,121.999L204.211,121.999
		L204.211,121.999z M204.355,121.994h-0.026H204.355L204.355,121.994z M204.488,121.994h-0.015H204.488L204.488,121.994z
		 M204.877,121.979h-0.02H204.877L204.877,121.979z M205.02,121.979h-0.051H205.02L205.02,121.979z M205.174,121.974h-0.061H205.174
		L205.174,121.974z M205.322,121.969h-0.067H205.322L205.322,121.969z M308.777,121.969h0.02H308.777L308.777,121.969z
		 M308.628,121.969h0.041H308.628L308.628,121.969z M205.537,121.969h-0.087H205.537L205.537,121.969z M308.475,121.964h0.051
		H308.475L308.475,121.964z M205.686,121.964h-0.077H205.686L205.686,121.964z M308.326,121.964h0.051H308.326L308.326,121.964z
		 M205.834,121.964h-0.077H205.834L205.834,121.964z M205.993,121.958h-0.087H205.993L205.993,121.958z M308.091,121.958h0.092
		H308.091L308.091,121.958z M307.937,121.958h0.092H307.937L307.937,121.958z M206.198,121.958h-0.143H206.198L206.198,121.958z
		 M307.784,121.958h0.092H307.784L307.784,121.958z M206.346,121.958h-0.113H206.346L206.346,121.958z M307.625,121.958h0.097
		H307.625L307.625,121.958z M206.495,121.958h-0.097H206.495L206.495,121.958z M206.653,121.958h-0.102H206.653L206.653,121.958z
		 M307.466,121.958h0.108H307.466L307.466,121.958z M206.853,121.953h-0.148H206.853L206.853,121.953z M307.267,121.953
		L307.267,121.953h0.154H307.267L307.267,121.953z"/>
	<path style="fill:#6EBEC5;" d="M264.448,256c0-43.059,23.02-76.452,42.819-76.452v-57.595H206.853
		c-55.46,0-100.413,60.012-100.413,134.047c0,74.03,44.959,134.047,100.413,134.047h100.413v-57.595
		C287.462,332.452,264.448,299.054,264.448,256L264.448,256z"/>
	<path style="fill:#857431;" d="M106.435,255.985L106.435,255.985h-0.015c0,31.985,8.407,61.394,22.426,84.434
		c2.335,3.835,4.818,7.501,7.46,10.972c-18.442-24.305-29.87-58.066-29.87-95.391V255.985L106.435,255.985z"/>
	<path style="fill:#3E929C;" d="M206.853,255.985H106.435V256c0,37.325,11.428,71.086,29.865,95.386
		c1.746,2.294,3.564,4.506,5.443,6.615l8.253-11.018l12.785,17.009l12.749-17.009l12.749,17.009l12.749-17.009l12.749,17.009
		l12.749-17.009l0.118,0.195c0.922-2.222,1.802-4.485,2.606-6.779c-14.003-23.04-22.395-52.413-22.395-84.393L206.853,255.985
		L206.853,255.985z"/>
	<path style="fill:#6EBEC5;" d="M206.868,255.985c0,23.654-4.608,45.885-12.672,65.157l-0.118-0.195l-12.749,17.009l-12.749-17.009
		l-12.749,17.009l-12.749-17.009l-12.749,17.009l-12.785-17.009l-12.749,17.009l-11.597-15.473
		c8.407-19.584,13.21-42.312,13.21-66.504h100.454V255.985z"/>
	<path style="fill:#429CA6;" d="M407.68,256c0,74.03-44.959,134.047-100.413,134.047c-55.46,0-100.413-60.012-100.413-134.047
		s44.959-134.047,100.413-134.047C362.726,121.953,407.68,181.97,407.68,256L407.68,256z"/>
	<path style="fill:#88C3CC;" d="M392.325,254.08c-1.06,0-1.92,0.86-1.92,1.92c0,64.384-37.294,116.767-83.133,116.767
		c-1.06,0-1.92,0.86-1.92,1.92s0.86,1.92,1.92,1.92c47.959,0,86.973-54.103,86.973-120.607
		C394.245,254.94,393.385,254.08,392.325,254.08L392.325,254.08z"/>
	<path style="fill:#88C3CC;" d="M307.267,135.393c-47.959,0-86.973,54.103-86.973,120.607c0,1.06,0.86,1.92,1.92,1.92
		s1.92-0.86,1.92-1.92c0-64.384,37.294-116.767,83.139-116.767c1.06,0,1.92-0.86,1.92-1.92S308.326,135.393,307.267,135.393
		L307.267,135.393z"/>
	<path style="fill:#88C3CC;" d="M376.965,254.08c-1.06,0-1.92,0.86-1.92,1.92c0,54.968-31.037,101.407-67.779,101.407
		c-1.06,0-1.92,0.86-1.92,1.92s0.86,1.92,1.92,1.92c38.82,0,71.619-48.2,71.619-105.247
		C378.885,254.94,378.025,254.08,376.965,254.08L376.965,254.08z"/>
	<path style="fill:#88C3CC;" d="M307.267,150.753c-38.82,0-71.619,48.2-71.619,105.252c0,1.06,0.86,1.92,1.92,1.92
		s1.92-0.86,1.92-1.92c0-54.968,31.037-101.412,67.779-101.412c1.06,0,1.92-0.86,1.92-1.92
		C309.187,151.608,308.326,150.753,307.267,150.753L307.267,150.753z"/>
	<path style="fill:#88C3CC;" d="M361.605,254.08c-1.06,0-1.92,0.86-1.92,1.92c0,45.839-24.494,86.047-52.419,86.047
		c-1.06,0-1.92,0.86-1.92,1.92s0.86,1.92,1.92,1.92c29.967,0,56.259-42.004,56.259-89.887
		C363.525,254.94,362.665,254.08,361.605,254.08L361.605,254.08z"/>
	<path style="fill:#88C3CC;" d="M307.267,166.108c-29.967,0-56.259,42.005-56.259,89.892c0,1.06,0.86,1.92,1.92,1.92
		c1.06,0,1.92-0.86,1.92-1.92c0-45.839,24.494-86.052,52.419-86.052c1.06,0,1.92-0.86,1.92-1.92
		C309.187,166.968,308.326,166.108,307.267,166.108L307.267,166.108z"/>
	<path style="fill:#E46A5D;" d="M307.267,332.452c-19.804,0-42.819-33.393-42.819-76.447c0-43.059,23.02-76.452,42.819-76.452
		c19.804,0,42.819,33.393,42.819,76.452C350.085,299.054,327.071,332.452,307.267,332.452L307.267,332.452z"/>
	<path style="fill:#D45446;" d="M307.267,320.932c-10.747,0-31.299-25.283-31.299-64.932c0-39.644,20.552-64.932,31.299-64.932
		c10.747,0,31.299,25.288,31.299,64.932C338.565,295.649,318.013,320.932,307.267,320.932L307.267,320.932z"/>
	<path style="fill:#D3473C;" d="M275.973,257.198L275.973,257.198L275.973,257.198L275.973,257.198z M275.973,257.075v0.015V257.075
		L275.973,257.075z M275.968,256.957v0.015V256.957L275.968,256.957z M275.968,256.835v0.026V256.835L275.968,256.835z
		 M275.968,256.717v0.026V256.717L275.968,256.717z M275.968,256.594v0.031V256.594L275.968,256.594z M275.968,256.476v0.036
		V256.476L275.968,256.476z M275.968,256.353v0.046V256.353L275.968,256.353z M275.968,256.236v0.051V256.236L275.968,256.236z
		 M275.968,256.118v0.056V256.118L275.968,256.118z M307.661,191.078L307.661,191.078L307.661,191.078L307.661,191.078z
		 M307.63,191.078L307.63,191.078L307.63,191.078L307.63,191.078z M307.599,191.078L307.599,191.078L307.599,191.078
		L307.599,191.078z M307.569,191.073h0.01H307.569L307.569,191.073z M307.533,191.073h0.015H307.533L307.533,191.073z
		 M307.517,191.073L307.517,191.073L307.517,191.073L307.517,191.073z M307.461,191.073h0.015H307.461L307.461,191.073z
		 M307.43,191.068h0.015H307.43L307.43,191.068z M307.4,191.068h0.02H307.4L307.4,191.068z M307.369,191.068h0.02H307.369
		L307.369,191.068z M307.338,191.068h0.021H307.338L307.338,191.068z M307.308,191.068h0.02H307.308L307.308,191.068z
		 M307.267,191.068c-10.747,0-31.299,25.288-31.299,64.932C275.968,216.356,296.52,191.068,307.267,191.068h0.031H307.267
		L307.267,191.068z"/>
	<path style="fill:#C4382D;" d="M307.267,191.068c-10.747,0-31.299,25.288-31.299,64.932v0.118v0.056v0.061v0.051v0.067v0.046v0.072
		v0.036v0.087v0.031v0.087v0.026v0.092v0.026v0.097v0.015v0.102v0.015v0.108l0,0c0.21,19.973,5.647,36.173,12.319,47.263
		c-0.502-4.183-0.804-8.55-0.804-13.133c0-39.644,20.552-64.932,31.299-64.932c5.181,0,12.636,5.929,18.98,16.471
		c-3.794-31.555-20.521-51.246-30.1-51.784h-0.005h-0.026h-0.005h-0.026h-0.005h-0.02h-0.01h-0.021h-0.015h-0.015h-0.005h-0.041
		h-0.015h-0.015h-0.015h-0.015h-0.02h-0.01h-0.021h-0.01h-0.02h-0.01h-0.02h-0.01L307.267,191.068L307.267,191.068z"/>
	<path style="fill:#BBE1E9;" d="M247.025,148.746c-0.476,0-23.736,0-31.539,0c-10.117,0-30.351,0-40.463,0
		c-7.101,0-28.401,0-28.401,0c-17.772,17.812-30.961,43.315-36.818,72.806h100.398C216.054,192.067,229.253,166.564,247.025,148.746
		L247.025,148.746z"/>
	<path style="fill:#B2DAE3;" d="M247.03,148.746h-0.005c-17.772,17.818-30.971,43.315-36.828,72.806h0.015
		C216.074,192.067,229.258,166.564,247.03,148.746L247.03,148.746z"/>
</g>
</svg>
